<?xml version="1.0" encoding="UTF-8"?>
<svg width="705px" height="150px" viewBox="0 0 705 150" version="1.1" xmlns="http://www.w3.org/2000/svg" xmlns:xlink="http://www.w3.org/1999/xlink">
    <title>eikonica</title>
    <g id="Page-1" stroke="none" stroke-width="1" fill="none" fill-rule="evenodd">
        <g id="Wireframe" transform="translate(-624.000000, -272.000000)" fill="#000000" fill-rule="nonzero">
            <g id="intro" transform="translate(111.000000, 272.000000)">
                <g id="eikonica" transform="translate(513.000000, 0.000000)">
                    <path d="M91,72.6843177 L91,96.7515275 C91,101.276986 87.2941176,104.773931 82.9705882,104.773931 L25.5294118,104.773931 C21,104.773931 17.5,108.476578 17.5,112.796334 L17.5,118.556008 C17.5,120.613035 18.3235294,122.670061 19.7647059,124.315682 L26.7647059,131.309572 C28.2058824,132.749491 30.2647059,133.572301 32.5294118,133.572301 L61.7647059,133.572301 C63.8235294,133.572301 65.8823529,132.749491 67.5294118,131.309572 L73.7058824,125.138493 C76.7941176,122.052953 81.9411765,122.052953 85.0294118,125.138493 L85.0294118,125.138493 C88.1176471,128.224033 88.1176471,133.366599 85.0294118,136.452138 L74.7352941,146.737271 C73.2941176,148.177189 71.2352941,149 68.9705882,149 L24.7058824,149 C22.6470588,149 20.5882353,148.177189 18.9411765,146.737271 L2.26470588,130.075356 C0.823529412,128.635438 0,126.578411 0,124.521385 L0,72.6843177 C0,70.6272912 0.823529412,68.5702648 2.26470588,66.9246436 L18.9411765,50.2627291 C20.3823529,48.8228106 22.4411765,48 24.7058824,48 L66.0882353,48 C68.1470588,48 70.2058824,48.8228106 71.8529412,50.2627291 L88.5294118,66.9246436 C89.9705882,68.5702648 91,70.6272912 91,72.6843177 Z M73.5,81.5295316 L73.5,78.4439919 C73.5,76.3869654 72.6764706,74.3299389 71.2352941,72.6843177 L64.0294118,65.6904277 C62.5882353,64.2505092 60.5294118,63.4276986 58.2647059,63.4276986 L32.5294118,63.4276986 C30.4705882,63.4276986 28.4117647,64.2505092 26.7647059,65.6904277 L19.7647059,72.6843177 C18.3235294,74.1242363 17.5,76.1812627 17.5,78.4439919 L17.5,81.5295316 C17.5,86.0549898 21.2058824,89.5519348 25.5294118,89.5519348 L65.4705882,89.5519348 C69.7941176,89.7576375 73.5,86.0549898 73.5,81.5295316 Z" id="Shape"></path>
                    <path d="M121.004042,1 L121.004042,1 C125.9304,1 130,4.89539749 130,9.61087866 L130,14.7364017 C130,19.4518828 125.9304,23.3472803 121.004042,23.3472803 L121.004042,23.3472803 C116.077683,23.3472803 112.008083,19.4518828 112.008083,14.7364017 L112.008083,9.61087866 C111.793894,4.89539749 115.863494,1 121.004042,1 Z M121.004042,47.334728 L121.004042,47.334728 C125.9304,47.334728 130,51.2301255 130,55.9456067 L130,139.389121 C130,144.104603 125.9304,148 121.004042,148 L121.004042,148 C116.077683,148 112.008083,144.104603 112.008083,139.389121 L112.008083,55.9456067 C111.793894,51.2301255 115.863494,47.334728 121.004042,47.334728 Z" id="Shape"></path>
                    <path d="M220.051951,147.520661 L188.617739,115.082645 C183.718901,109.917355 175.145934,113.636364 175.145934,120.661157 L175.145934,142.14876 C175.145934,146.487603 171.675923,150 167.38944,150 L165.756494,150 C161.47001,150 158,146.487603 158,142.14876 L158,7.85123967 C158,3.51239669 161.47001,0 165.756494,0 L167.38944,0 C171.675923,0 175.145934,3.51239669 175.145934,7.85123967 L175.145934,76.0330579 C175.145934,83.0578512 183.718901,86.7768595 188.617739,81.6115702 L218.623123,50.6198347 C220.051951,49.1735537 222.093133,48.1404959 224.134316,48.1404959 L224.134316,48.1404959 C231.074337,48.1404959 234.544347,56.6115702 229.645509,61.5702479 L200.25248,92.1487603 C197.190706,95.2479339 197.190706,100.206612 200.25248,103.305785 L232.707283,136.363636 C237.606121,141.322314 234.136111,149.793388 227.19609,149.793388 L225.767262,149.793388 C223.521961,150 221.684897,149.173554 220.051951,147.520661 Z" id="Path"></path>
                    <path d="M343,78.4755102 L343,120.52449 C343,125.883673 340.931818,130.830612 337.209091,134.540816 L327.488636,144.228571 C323.765909,147.938776 318.595455,150 313.425,150 L281.575,150 C276.197727,150 271.234091,147.938776 267.511364,144.228571 L257.790909,134.540816 C254.068182,130.830612 252,125.677551 252,120.52449 L252,78.4755102 C252,73.1163265 254.068182,68.1693878 257.790909,64.4591837 L267.511364,54.7714286 C271.234091,51.0612245 276.404545,49 281.575,49 L313.425,49 C318.802273,49 323.765909,51.0612245 327.488636,54.7714286 L337.209091,64.4591837 C340.931818,68.1693878 343,73.1163265 343,78.4755102 Z M325.627273,114.753061 L325.627273,84.2469388 C325.627273,78.8877551 323.559091,73.9408163 319.836364,70.2306122 L319.836364,70.2306122 C315.906818,66.5204082 310.943182,64.4591837 305.565909,64.4591837 L289.227273,64.4591837 C283.85,64.4591837 278.886364,66.5204082 275.163636,70.2306122 L275.163636,70.2306122 C271.440909,73.9408163 269.372727,79.0938776 269.372727,84.2469388 L269.372727,114.753061 C269.372727,120.112245 271.440909,125.059184 275.163636,128.769388 L275.163636,128.769388 C278.886364,132.479592 284.056818,134.540816 289.227273,134.540816 L305.565909,134.540816 C310.943182,134.540816 315.906818,132.479592 319.629545,128.769388 L319.629545,128.769388 C323.559091,125.059184 325.627273,119.906122 325.627273,114.753061 Z" id="Shape"></path>
                    <path d="M454,69.4453441 L454,143.866397 C454,147.137652 451.320843,149.795547 448.023419,149.795547 L442.459016,149.795547 C439.161593,149.795547 436.482436,147.137652 436.482436,143.866397 L436.482436,75.9878543 C436.482436,74.3522267 435.864169,72.9210526 434.627635,71.694332 L429.269321,66.3785425 C428.238876,65.3562753 426.590164,64.5384615 424.941452,64.5384615 L405.569087,64.5384615 C403.920375,64.5384615 402.477752,65.1518219 401.241218,66.3785425 L385.372365,82.1214575 C384.34192,83.1437247 383.517564,84.7793522 383.517564,86.4149798 L383.517564,144.07085 C383.517564,147.342105 380.838407,150 377.540984,150 L371.976581,150 C368.679157,150 366,147.342105 366,144.07085 L366,55.1336032 C366,51.8623482 368.679157,49.2044534 371.976581,49.2044534 L376.098361,49.2044534 C379.395785,49.2044534 381.868852,51.6578947 382.074941,54.9291498 L382.074941,54.9291498 C382.28103,60.0404858 388.669789,62.4939271 392.379391,58.8137652 L400.416862,50.840081 C401.447307,49.8178138 403.096019,49 404.744731,49 L433.391101,49 C435.039813,49 436.482436,49.6133603 437.71897,50.840081 L452.145199,65.1518219 C453.381733,66.3785425 454,67.8097166 454,69.4453441 Z" id="Path"></path>
                    <path d="M487,1 L487,1 C491.928571,1 496,4.89539749 496,9.61087866 L496,14.7364017 C496,19.4518828 491.928571,23.3472803 487,23.3472803 L487,23.3472803 C482.071429,23.3472803 478,19.4518828 478,14.7364017 L478,9.61087866 C478,4.89539749 482.071429,1 487,1 Z M487,47.334728 L487,47.334728 C491.928571,47.334728 496,51.2301255 496,55.9456067 L496,139.389121 C496,144.104603 491.928571,148 487,148 L487,148 C482.071429,148 478,144.104603 478,139.389121 L478,55.9456067 C478,51.2301255 482.071429,47.334728 487,47.334728 Z" id="Shape"></path>
                    <path d="M600.663409,137.477642 L590.278558,147.74187 C588.824679,149.178862 586.747709,150 584.463042,150 L542.923641,150 C540.846671,150 538.769701,149.178862 537.108125,147.74187 L520.284667,131.113821 C518.830788,129.676829 518,127.623984 518,125.365854 L518,73.6341463 C518,71.5813008 518.830788,69.5284553 520.284667,67.8861789 L537.108125,51.2581301 C538.562004,49.8211382 540.638974,49 542.923641,49 L583.424557,49 C585.501527,49 587.578497,49.8211382 589.240073,51.2581301 L599.624924,61.5223577 C602.740379,64.601626 602.740379,69.7337398 599.624924,72.8130081 L599.624924,72.8130081 C596.509469,75.8922764 591.317043,75.8922764 588.201588,72.8130081 L582.178375,66.8597561 C580.724496,65.4227642 578.647526,64.601626 576.362859,64.601626 L550.816127,64.601626 C548.739157,64.601626 546.662187,65.4227642 545.000611,66.8597561 L538.14661,73.6341463 C536.692731,75.0711382 535.861943,77.1239837 535.861943,79.3821138 L535.861943,119.412602 C535.861943,121.465447 536.692731,123.518293 538.14661,125.160569 L545.000611,131.934959 C546.45449,133.371951 548.53146,134.193089 550.816127,134.193089 L577.401344,134.193089 C579.478314,134.193089 581.555284,133.371951 583.21686,131.934959 L589.240073,125.981707 C592.355528,122.902439 597.547954,122.902439 600.663409,125.981707 L600.663409,125.981707 C603.778864,129.26626 603.778864,134.398374 600.663409,137.477642 Z" id="Path"></path>
                    <path d="M705,69.4453441 L705,143.866397 C705,147.137652 702.323529,149.795547 699.029412,149.795547 L694.911765,149.795547 C691.617647,149.795547 689.147059,147.342105 688.941176,144.07085 L688.941176,144.07085 C688.735294,138.959514 682.352941,136.506073 678.647059,140.186235 L670.617647,148.159919 C669.588235,149.182186 667.941176,150 666.294118,150 L633.970588,150 C632.323529,150 630.882353,149.38664 629.647059,148.159919 L615.852941,134.461538 C614.823529,133.439271 614,131.803644 614,130.168016 L614,111.562753 C614,109.927126 614.617647,108.495951 615.852941,107.269231 L627.588235,95.6153846 C628.617647,94.5931174 630.058824,93.9797571 631.5,93.9797571 L681.529412,90.5040486 C684.617647,90.2995951 687.088235,87.6417004 687.088235,84.5748988 L687.088235,75.7834008 C687.088235,74.1477733 686.470588,72.7165992 685.235294,71.4898785 L679.676471,65.9696356 C678.647059,64.9473684 677,64.1295547 675.352941,64.1295547 L644.058824,64.1295547 C642.411765,64.1295547 640.970588,64.742915 639.735294,65.9696356 L632.117647,73.534413 C629.852941,75.7834008 625.941176,75.7834008 623.676471,73.534413 L620.794118,70.6720648 C618.529412,68.4230769 618.529412,64.5384615 620.794118,62.2894737 L632.323529,50.840081 C633.352941,49.8178138 635,49 636.647059,49 L684.205882,49 C685.852941,49 687.294118,49.6133603 688.529412,50.840081 L702.941176,65.1518219 C704.382353,66.3785425 705,67.8097166 705,69.4453441 Z M687.5,112.58502 L687.5,111.767206 C687.5,108.291498 684.617647,105.633603 681.117647,105.838057 L640.147059,108.700405 C638.705882,108.700405 637.264706,109.313765 636.441176,110.336032 L633.764706,112.993927 C632.735294,114.016194 631.911765,115.651822 631.911765,117.287449 L631.911765,124.238866 C631.911765,125.874494 632.529412,127.305668 633.764706,128.532389 L637.882353,132.621457 C638.911765,133.643725 640.558824,134.461538 642.205882,134.461538 L665.676471,134.461538 C667.323529,134.461538 668.764706,133.848178 670,132.621457 L686.058824,116.674089 C686.882353,115.856275 687.5,114.220648 687.5,112.58502 Z" id="Shape"></path>
                </g>
            </g>
        </g>
    </g>
</svg>