<?xml version="1.0" encoding="UTF-8"?>
<svg width="43px" height="42px" viewBox="0 0 43 42" version="1.1" xmlns="http://www.w3.org/2000/svg" xmlns:xlink="http://www.w3.org/1999/xlink">
    <title>facebook</title>
    <g id="Page-1" stroke="none" stroke-width="1" fill="none" fill-rule="evenodd">
        <g id="Wireframe" transform="translate(-276.000000, -4364.000000)" fill="#FFFFFF" fill-rule="nonzero">
            <g id="footer" transform="translate(0.000000, 4144.000000)">
                <g id="facebook" transform="translate(276.671875, 220.046875)">
                    <path d="M41.65625,20.828125 C41.65625,9.32226562 32.3339844,0 20.828125,0 C9.32226562,0 0,9.32226562 0,20.828125 C0,31.2237108 7.61654317,39.8405082 17.5737305,41.4042969 L17.5737305,26.848965 L12.2827148,26.848965 L12.2827148,20.828125 L17.5737305,20.828125 L17.5737305,16.2392188 C17.5737305,11.0195891 20.6811523,8.13640666 25.4405454,8.13640666 C27.7198826,8.13640666 30.103357,8.54289073 30.103357,8.54289073 L30.103357,13.6659376 L27.4763259,13.6659376 C24.8896081,13.6659376 24.082517,15.2717184 24.082517,16.9186521 L24.082517,20.828125 L29.8589622,20.828125 L28.9351341,26.848965 L24.082517,26.848965 L24.082517,41.4042969 C34.0397068,39.8405082 41.65625,31.2237108 41.65625,20.828125 Z" id="Path"></path>
                </g>
            </g>
        </g>
    </g>
</svg>