<?xml version="1.0" encoding="UTF-8"?>
<svg width="39px" height="38px" viewBox="0 0 39 38" version="1.1" xmlns="http://www.w3.org/2000/svg" xmlns:xlink="http://www.w3.org/1999/xlink">
    <title>instagram</title>
    <g id="Page-1" stroke="none" stroke-width="1" fill="none" fill-rule="evenodd">
        <g id="Wireframe" transform="translate(-192.000000, -4366.000000)" fill="#FFFFFF" fill-rule="nonzero">
            <g id="footer" transform="translate(0.000000, 4144.000000)">
                <g id="instagram" transform="translate(192.993700, 222.047802)">
                    <path d="M18.8271994,9.16899504 C13.4857927,9.16899504 9.17739399,13.4773937 9.17739399,18.8187992 C9.17739399,24.160206 13.4857927,28.4686034 18.8271994,28.4686034 C24.1686062,28.4686034 28.4770036,24.160206 28.4770036,18.8187992 C28.4770036,13.4773924 24.1686062,9.16899504 18.8271994,9.16899504 Z M18.8271994,25.0924331 C15.3754411,25.0924331 12.5535669,22.2789565 12.5535669,18.8188005 C12.5535669,15.3586445 15.3670435,12.5451679 18.8271994,12.5451679 C22.2873542,12.5451679 25.1008307,15.3586445 25.1008307,18.8188005 C25.1008307,22.2789565 22.2789552,25.0924331 18.8271982,25.0924331 L18.8271994,25.0924331 Z M31.1225114,8.77426745 C31.1225114,7.53129973 30.1146989,6.52348723 28.8717312,6.52348723 C27.6287635,6.52348723 26.620951,7.53129973 26.620951,8.77426745 C26.620951,10.0172377 27.6203645,11.0250502 28.8717312,11.0250502 C30.1146989,11.0250502 31.1225114,10.0256367 31.1225114,8.77426745 Z M37.5137229,11.0586435 C37.3709484,8.04360493 36.6822781,5.37290026 34.4734875,3.17251118 C32.2730958,0.972119525 29.6023937,0.283449188 26.5873552,0.132275775 C23.4799333,-0.044091925 14.1660666,-0.044091925 11.0586448,0.132275775 C8.05200388,0.275050238 5.38130049,0.963720575 3.17251118,3.16411223 C0.963721856,5.36450388 0.283447906,8.03520598 0.132275775,11.0502445 C-0.044091925,14.1576664 -0.044091925,23.4715331 0.132275775,26.5789549 C0.275048956,29.5939935 0.963720575,32.2646982 3.17250989,34.4650872 C5.38129921,36.6654763 8.04360364,37.3541492 11.0586435,37.5053227 C14.1660654,37.6816904 23.479932,37.6816904 26.5873539,37.5053227 C29.6023924,37.3625482 32.2730971,36.6738779 34.4734862,34.4650872 C36.6738779,32.2646956 37.3625482,29.5939935 37.5137216,26.5789549 C37.6900893,23.4715331 37.6900893,14.1660641 37.5137216,11.0586435 L37.5137229,11.0586435 Z M33.4992669,29.9131357 C32.8441898,31.5592299 31.5760253,32.8273945 29.921532,33.4908706 C27.443993,34.4734888 21.5650867,34.2467299 18.8271956,34.2467299 C16.0893045,34.2467299 10.2020005,34.4650898 7.73285915,33.4908706 C6.08676489,32.8357935 4.81860031,31.5676289 4.15512426,29.9131357 C3.17250733,27.4355966 3.39926489,21.5566904 3.39926489,18.8187992 C3.39926489,16.0809081 3.180905,10.1936054 4.15512426,7.72446276 C4.81020264,6.0783685 6.07836722,4.81020392 7.73285915,4.14672787 C10.2103982,3.16411223 16.0893045,3.3908685 18.8271956,3.3908685 C21.5650867,3.3908685 27.4523919,3.17250861 29.921532,4.14672787 C31.5676263,4.80180754 32.8357909,6.06996955 33.4992669,7.72446276 C34.4818852,10.2020018 34.2551263,16.0809081 34.2551263,18.8187992 C34.2551263,21.5566904 34.4818852,27.443993 33.4992669,29.9131357 Z" id="Shape"></path>
                </g>
            </g>
        </g>
    </g>
</svg>