<?xml version="1.0" encoding="UTF-8"?>
<svg width="38px" height="38px" viewBox="0 0 38 38" version="1.1" xmlns="http://www.w3.org/2000/svg" xmlns:xlink="http://www.w3.org/1999/xlink">
    <title>linkedin</title>
    <g id="Page-1" stroke="none" stroke-width="1" fill="none" fill-rule="evenodd">
        <g id="Wireframe" transform="translate(-110.000000, -4366.000000)" fill="#FFFFFF" fill-rule="nonzero">
            <g id="footer" transform="translate(0.000000, 4144.000000)">
                <g id="linkedin" transform="translate(109.999999, 222.062500)">
                    <path d="M34.9375013,0 L2.67910233,0 C1.20097682,0 0,1.21777344 0,2.71269429 L0,34.9123057 C0,36.4072266 1.20097682,37.625 2.67910233,37.625 L34.9375013,37.625 C36.4156268,37.625 37.6250013,36.4072266 37.6250013,34.9123057 L37.6250013,2.71269429 C37.6250013,1.21777344 36.4156268,0 34.9375013,0 Z M11.3714851,32.25 L5.79492316,32.25 L5.79492316,14.2941404 L11.3798841,14.2941404 L11.3798841,32.25 L11.3714851,32.25 Z M8.58320415,11.8417969 C6.79433671,11.8417969 5.34980571,10.3888682 5.34980571,8.60839844 C5.34980571,6.82792866 6.79433799,5.375 8.58320543,5.375 C10.3636739,5.375 11.8166039,6.82792866 11.8166039,8.60839844 C11.8166039,10.3972646 10.3720729,11.8417969 8.58320543,11.8417969 L8.58320415,11.8417969 Z M32.2751956,32.25 L26.6986336,32.25 L26.6986336,23.515625 C26.6986336,21.4328135 26.6566414,18.7537112 23.8011726,18.7537112 C20.8953128,18.7537112 20.4501966,21.021288 20.4501966,23.3644542 L20.4501966,32.25 L14.8736346,32.25 L14.8736346,14.2941404 L20.223439,14.2941404 L20.223439,16.7464839 L20.2990245,16.7464839 C21.0464849,15.3355461 22.8689456,13.8490229 25.5816424,13.8490229 C31.2253909,13.8490229 32.2751956,17.569531 32.2751956,22.4070302 L32.2751956,32.25 Z" id="Shape"></path>
                </g>
            </g>
        </g>
    </g>
</svg>